<svg xmlns="http://www.w3.org/2000/svg" xmlns:xlink="http://www.w3.org/1999/xlink" width="323" zoomAndPan="magnify" viewBox="0 0 242.87999 153.000002" height="204" preserveAspectRatio="xMidYMid meet" version="1.0"><defs><clipPath id="16cfed168d"><path d="M 53.246094 13.4375 L 189.605469 13.4375 L 189.605469 138.621094 L 53.246094 138.621094 Z M 53.246094 13.4375 " clip-rule="nonzero"/></clipPath></defs><g clip-path="url(#16cfed168d)"><path fill="#faf7e8" d="M 103.394531 13.480469 C 122.285156 13.480469 138.738281 23.929688 147.289062 39.367188 C 170.984375 41.816406 189.265625 61.855469 189.265625 85.972656 C 189.265625 95.28125 186.539062 104.1875 181.492188 111.808594 L 181.570312 111.6875 L 182.09375 135.355469 C 182.140625 137.417969 180.085938 138.839844 178.195312 138.132812 L 178 138.050781 L 159.472656 129.617188 L 159.019531 129.792969 C 154.035156 131.6875 148.742188 132.71875 143.316406 132.820312 L 142.410156 132.828125 C 127.308594 132.828125 113.417969 125.628906 104.664062 113.746094 L 104.222656 113.753906 L 103.394531 113.761719 C 97.210938 113.761719 91.183594 112.640625 85.53125 110.488281 L 85.039062 110.292969 L 60.851562 121.308594 L 61.511719 91.203125 L 61.117188 90.59375 C 56.160156 82.835938 53.410156 73.855469 53.253906 64.476562 L 53.246094 63.621094 C 53.246094 35.929688 75.695312 13.480469 103.394531 13.480469 Z M 150.214844 45.644531 C 150.507812 46.40625 150.78125 47.175781 151.039062 47.957031 C 151.046875 47.988281 151.058594 48.019531 151.066406 48.050781 C 151.25 48.601562 151.421875 49.160156 151.582031 49.722656 C 151.605469 49.804688 151.628906 49.890625 151.652344 49.972656 C 151.898438 50.835938 152.117188 51.707031 152.316406 52.585938 C 152.332031 52.660156 152.347656 52.734375 152.363281 52.808594 C 152.410156 53.023438 152.457031 53.238281 152.5 53.453125 C 152.523438 53.5625 152.546875 53.667969 152.566406 53.777344 C 152.6875 54.386719 152.800781 55 152.898438 55.617188 C 152.898438 55.625 152.902344 55.636719 152.902344 55.644531 L 152.898438 55.617188 C 152.949219 55.925781 152.992188 56.234375 153.039062 56.542969 C 153.046875 56.613281 153.058594 56.683594 153.066406 56.757812 C 153.101562 57 153.132812 57.242188 153.160156 57.484375 C 153.171875 57.558594 153.179688 57.632812 153.1875 57.703125 C 153.257812 58.304688 153.316406 58.90625 153.367188 59.507812 L 153.375 59.613281 C 153.378906 59.660156 153.382812 59.703125 153.386719 59.746094 C 153.40625 59.996094 153.421875 60.246094 153.4375 60.496094 C 153.441406 60.566406 153.445312 60.636719 153.449219 60.703125 C 153.464844 60.945312 153.476562 61.1875 153.488281 61.429688 C 153.488281 61.507812 153.492188 61.589844 153.496094 61.667969 C 153.503906 61.921875 153.511719 62.171875 153.519531 62.425781 C 153.527344 62.824219 153.535156 63.222656 153.535156 63.621094 L 153.523438 62.695312 C 153.53125 63.003906 153.535156 63.3125 153.535156 63.621094 L 153.53125 63.394531 L 153.535156 63.621094 C 153.535156 63.886719 153.53125 64.152344 153.527344 64.417969 C 153.519531 64.828125 153.507812 65.234375 153.492188 65.640625 C 153.488281 65.757812 153.484375 65.871094 153.480469 65.984375 C 153.476562 66.066406 153.472656 66.152344 153.464844 66.238281 C 153.457031 66.410156 153.449219 66.582031 153.4375 66.757812 C 153.429688 66.878906 153.421875 67 153.414062 67.121094 C 153.40625 67.191406 153.402344 67.265625 153.398438 67.335938 C 153.382812 67.535156 153.367188 67.738281 153.351562 67.9375 C 153.34375 68.027344 153.332031 68.121094 153.324219 68.210938 C 153.3125 68.367188 153.296875 68.523438 153.28125 68.679688 C 153.273438 68.746094 153.265625 68.8125 153.261719 68.882812 C 153.121094 70.203125 152.933594 71.511719 152.695312 72.804688 C 152.671875 72.917969 152.648438 73.035156 152.628906 73.148438 C 152.601562 73.296875 152.570312 73.445312 152.542969 73.59375 C 152.523438 73.675781 152.507812 73.753906 152.492188 73.832031 C 150.734375 82.339844 146.816406 90.0625 141.339844 96.394531 C 141.238281 96.511719 141.140625 96.625 141.039062 96.742188 C 140.957031 96.832031 140.875 96.925781 140.792969 97.019531 C 140.722656 97.09375 140.65625 97.171875 140.585938 97.25 C 140.324219 97.539062 140.058594 97.828125 139.789062 98.109375 C 139.710938 98.191406 139.632812 98.273438 139.550781 98.355469 C 139.480469 98.433594 139.410156 98.507812 139.335938 98.582031 C 133.460938 104.621094 126.074219 109.195312 117.765625 111.671875 C 117.734375 111.679688 117.707031 111.6875 117.675781 111.699219 C 117.207031 111.839844 116.738281 111.96875 116.261719 112.09375 C 116.234375 112.101562 116.203125 112.109375 116.175781 112.117188 C 115.964844 112.175781 115.75 112.226562 115.539062 112.28125 C 115.496094 112.292969 115.449219 112.300781 115.40625 112.3125 L 115.539062 112.28125 C 115.3125 112.339844 115.082031 112.394531 114.851562 112.445312 C 114.769531 112.464844 114.6875 112.484375 114.609375 112.503906 C 114.503906 112.527344 114.402344 112.550781 114.300781 112.570312 C 114.066406 112.625 113.832031 112.675781 113.597656 112.722656 C 113.441406 112.753906 113.285156 112.785156 113.128906 112.816406 C 113.066406 112.828125 113.003906 112.839844 112.941406 112.851562 C 112.546875 112.929688 112.148438 113 111.746094 113.070312 L 112.390625 112.957031 C 112.117188 113.007812 111.847656 113.054688 111.574219 113.097656 L 111.804688 113.363281 C 119.339844 121.785156 130.09375 126.84375 141.722656 127.035156 L 142.410156 127.042969 C 147.976562 127.042969 153.386719 125.929688 158.410156 123.804688 C 159.15625 123.488281 160 123.5 160.738281 123.832031 L 176.207031 130.875 L 175.765625 110.898438 C 175.753906 110.386719 175.878906 109.882812 176.125 109.433594 L 176.261719 109.214844 L 176.683594 108.589844 C 181.09375 101.933594 183.476562 94.132812 183.476562 85.972656 C 183.476562 66.085938 169.292969 49.363281 150.324219 45.664062 Z M 103.394531 19.269531 C 78.890625 19.269531 59.035156 39.125 59.035156 63.621094 C 59.035156 72.699219 61.773438 81.375 66.8125 88.714844 L 67.339844 89.484375 L 66.839844 112.21875 L 84.933594 103.984375 L 86.101562 104.480469 C 91.527344 106.777344 97.371094 107.972656 103.394531 107.972656 C 104.292969 107.972656 105.183594 107.945312 106.070312 107.894531 C 106.230469 107.882812 106.390625 107.875 106.546875 107.863281 L 106.070312 107.894531 C 106.308594 107.878906 106.546875 107.863281 106.78125 107.847656 L 106.546875 107.863281 C 106.777344 107.847656 107.003906 107.828125 107.230469 107.808594 L 106.78125 107.847656 C 107.007812 107.828125 107.230469 107.808594 107.453125 107.789062 L 107.230469 107.808594 C 107.9375 107.75 108.640625 107.671875 109.335938 107.578125 C 109.433594 107.566406 109.535156 107.550781 109.632812 107.539062 L 109.335938 107.578125 C 109.554688 107.550781 109.769531 107.519531 109.988281 107.488281 L 109.632812 107.539062 C 109.871094 107.503906 110.113281 107.46875 110.351562 107.429688 L 109.988281 107.488281 C 110.230469 107.449219 110.472656 107.414062 110.714844 107.371094 L 110.351562 107.429688 C 110.558594 107.398438 110.765625 107.363281 110.972656 107.328125 L 110.714844 107.371094 C 110.933594 107.335938 111.152344 107.296875 111.371094 107.257812 L 110.972656 107.328125 C 111.246094 107.28125 111.519531 107.230469 111.792969 107.179688 L 111.371094 107.257812 C 111.597656 107.21875 111.824219 107.175781 112.046875 107.128906 L 111.792969 107.179688 C 112.058594 107.128906 112.324219 107.074219 112.589844 107.019531 L 112.046875 107.128906 C 112.269531 107.085938 112.492188 107.039062 112.710938 106.992188 L 112.589844 107.019531 C 121.582031 105.121094 129.570312 100.5 135.652344 94.058594 C 135.738281 93.96875 135.824219 93.875 135.914062 93.78125 L 135.652344 94.058594 C 135.808594 93.894531 135.964844 93.726562 136.117188 93.558594 L 135.914062 93.78125 C 136.082031 93.601562 136.246094 93.417969 136.410156 93.234375 L 136.117188 93.558594 C 136.265625 93.398438 136.410156 93.238281 136.554688 93.074219 L 136.410156 93.234375 C 136.546875 93.082031 136.679688 92.933594 136.8125 92.78125 L 136.554688 93.074219 C 136.703125 92.90625 136.847656 92.738281 136.996094 92.570312 L 136.8125 92.78125 C 142.609375 86.136719 146.457031 77.753906 147.472656 68.546875 C 147.492188 68.390625 147.507812 68.238281 147.523438 68.085938 L 147.472656 68.546875 C 147.550781 67.871094 147.609375 67.191406 147.652344 66.507812 C 147.679688 66.097656 147.699219 65.6875 147.714844 65.277344 C 147.734375 64.726562 147.746094 64.175781 147.746094 63.621094 C 147.746094 62.816406 147.722656 62.011719 147.679688 61.214844 C 147.675781 61.097656 147.667969 60.980469 147.660156 60.863281 L 147.679688 61.214844 C 147.664062 60.917969 147.644531 60.621094 147.625 60.324219 L 147.660156 60.863281 C 147.589844 59.675781 147.46875 58.503906 147.304688 57.347656 C 147.289062 57.226562 147.269531 57.109375 147.253906 56.988281 L 147.304688 57.347656 C 147.136719 56.160156 146.921875 54.992188 146.664062 53.835938 C 146.636719 53.71875 146.609375 53.601562 146.582031 53.480469 L 146.664062 53.835938 C 146.613281 53.621094 146.5625 53.40625 146.511719 53.191406 L 146.582031 53.480469 C 146.527344 53.238281 146.464844 52.996094 146.40625 52.753906 L 146.511719 53.191406 C 146.445312 52.90625 146.371094 52.625 146.300781 52.34375 L 146.40625 52.753906 C 146.351562 52.539062 146.296875 52.324219 146.238281 52.113281 L 146.300781 52.34375 C 145.710938 50.101562 144.953125 47.925781 144.035156 45.835938 C 143.996094 45.742188 143.953125 45.648438 143.914062 45.554688 L 144.035156 45.835938 C 143.921875 45.574219 143.804688 45.316406 143.6875 45.058594 C 143.679688 45.039062 143.667969 45.019531 143.660156 45 L 143.6875 45.058594 C 136.660156 29.835938 121.261719 19.269531 103.394531 19.269531 Z M 103.675781 82.875 C 105.671875 82.875 107.292969 84.492188 107.292969 86.492188 C 107.292969 88.488281 105.671875 90.109375 103.675781 90.109375 C 101.675781 90.109375 100.058594 88.488281 100.058594 86.492188 C 100.058594 84.492188 101.675781 82.875 103.675781 82.875 Z M 113.191406 63.28125 L 112.894531 63.566406 C 112.46875 63.972656 112.066406 64.382812 111.6875 64.800781 C 109.449219 67.257812 108.050781 69.847656 107.304688 72.429688 C 106.933594 73.726562 106.773438 74.808594 106.742188 75.582031 L 106.738281 76.046875 L 106.746094 76.265625 C 106.730469 77.996094 105.441406 79.449219 103.761719 79.5625 C 102.082031 79.675781 100.621094 78.414062 100.390625 76.699219 L 100.359375 76.339844 L 100.359375 76.273438 C 100.3125 74.816406 100.519531 72.832031 101.191406 70.503906 C 102.21875 66.949219 104.113281 63.441406 107.058594 60.207031 C 107.382812 59.847656 107.71875 59.496094 108.066406 59.148438 L 108.597656 58.632812 C 114.269531 53.246094 111.179688 44.429688 103.964844 45.304688 C 100.535156 45.722656 98.3125 47.242188 96.875 49.578125 C 96.273438 50.558594 95.847656 51.625 95.574219 52.695312 L 95.460938 53.183594 L 95.386719 53.570312 L 95.347656 53.847656 L 95.339844 53.941406 C 95.203125 55.777344 93.671875 57.152344 91.914062 57.015625 C 90.15625 56.875 88.835938 55.273438 88.96875 53.4375 C 89.011719 52.875 89.136719 52.03125 89.402344 50.988281 C 89.835938 49.28125 90.515625 47.578125 91.503906 45.96875 C 93.949219 42 97.84375 39.335938 103.226562 38.679688 C 116.820312 37.027344 122.804688 53.703125 113.191406 63.28125 Z M 113.191406 63.28125 " fill-opacity="1" fill-rule="nonzero"/></g></svg>